<svg xmlns="http://www.w3.org/2000/svg" viewBox="0 0 800 160" role="img" aria-label="稲毛区・千葉市街並みシルエット" preserveAspectRatio="xMidYEnd meet">
  <defs>
    <linearGradient id="fvCityGrad" x1="0" y1="0" x2="0" y2="1">
      <stop offset="0" stop-color="#DE7D00"/>
      <stop offset="1" stop-color="#A85400"/>
    </linearGradient>
  </defs>
  <g fill="url(#fvCityGrad)">
    <rect x="10" y="100" width="42" height="60"/>
    <rect x="55" y="86" width="34" height="74"/>
    <path d="M 92 92 L 102 78 L 130 78 L 140 92 L 140 160 L 92 160 Z"/>
    <rect x="145" y="70" width="46" height="90"/>
    <path d="M 194 55 L 208 40 L 232 40 L 240 55 L 240 160 L 194 160 Z"/>
    <path d="M 250 22 L 268 22 L 282 160 L 236 160 Z"/>
    <circle cx="259" cy="16" r="4"/>
    <rect x="290" y="90" width="32" height="70"/>
    <rect x="326" y="72" width="42" height="88"/>
    <path d="M 380 110 Q 380 68 428 68 Q 476 68 476 110 L 476 160 L 380 160 Z"/>
    <rect x="424" y="55" width="4" height="16"/>
    <rect x="480" y="88" width="30" height="72"/>
    <rect x="514" y="60" width="46" height="100"/>
    <rect x="564" y="82" width="34" height="78"/>
    <path d="M 602 44 L 630 44 L 640 54 L 640 160 L 602 160 Z"/>
    <rect x="646" y="76" width="30" height="84"/>
    <rect x="680" y="60" width="38" height="100"/>
    <rect x="722" y="94" width="28" height="66"/>
    <rect x="754" y="82" width="36" height="78"/>
    <rect x="0" y="155" width="800" height="5"/>
  </g>
  <g fill="#FFFFFF" opacity="0.32">
    <rect x="18" y="112" width="4" height="6"/>
    <rect x="26" y="112" width="4" height="6"/>
    <rect x="38" y="112" width="4" height="6"/>
    <rect x="18" y="126" width="4" height="6"/>
    <rect x="26" y="126" width="4" height="6"/>
    <rect x="38" y="126" width="4" height="6"/>
    <rect x="152" y="82" width="4" height="8"/>
    <rect x="162" y="82" width="4" height="8"/>
    <rect x="174" y="82" width="4" height="8"/>
    <rect x="152" y="100" width="4" height="8"/>
    <rect x="162" y="100" width="4" height="8"/>
    <rect x="174" y="100" width="4" height="8"/>
    <rect x="336" y="86" width="4" height="8"/>
    <rect x="346" y="86" width="4" height="8"/>
    <rect x="358" y="86" width="4" height="8"/>
    <rect x="522" y="74" width="4" height="10"/>
    <rect x="534" y="74" width="4" height="10"/>
    <rect x="546" y="74" width="4" height="10"/>
    <rect x="522" y="94" width="4" height="10"/>
    <rect x="534" y="94" width="4" height="10"/>
    <rect x="546" y="94" width="4" height="10"/>
    <rect x="690" y="74" width="4" height="10"/>
    <rect x="702" y="74" width="4" height="10"/>
    <rect x="690" y="92" width="4" height="10"/>
    <rect x="702" y="92" width="4" height="10"/>
  </g>
</svg>
