<svg xmlns="http://www.w3.org/2000/svg" viewBox="0 0 480 600" role="img" aria-label="投票済証明書を受け取り、スマホで対象店舗を選び、店舗で証明書を提示する使い方">
  <title>特典の利用方法</title>
  <defs>
    <linearGradient id="fvhSky" x1="0" y1="0" x2="0" y2="1">
      <stop offset="0" stop-color="#FFF7E8"/>
      <stop offset="1" stop-color="#FFE1AB"/>
    </linearGradient>
    <linearGradient id="fvhInterior" x1="0" y1="0" x2="0" y2="1">
      <stop offset="0" stop-color="#FFE9C7"/>
      <stop offset="1" stop-color="#F5C77A"/>
    </linearGradient>
    <linearGradient id="fvhCity" x1="0" y1="0" x2="0" y2="1">
      <stop offset="0" stop-color="#DE7D00"/>
      <stop offset="1" stop-color="#A85400"/>
    </linearGradient>
    <linearGradient id="fvhCard" x1="0" y1="0" x2="0" y2="1">
      <stop offset="0" stop-color="#FFFFFF"/>
      <stop offset="1" stop-color="#FFF3D6"/>
    </linearGradient>
    <linearGradient id="fvhArrow" x1="0" y1="0" x2="0" y2="1">
      <stop offset="0" stop-color="#F5A623"/>
      <stop offset="1" stop-color="#E08300"/>
    </linearGradient>
    <clipPath id="fvhPanel1"><rect x="10" y="10" width="460" height="175" rx="10"/></clipPath>
    <clipPath id="fvhPanel2"><rect x="10" y="210" width="460" height="175" rx="10"/></clipPath>
    <clipPath id="fvhPanel3"><rect x="10" y="410" width="460" height="180" rx="10"/></clipPath>
  </defs>

  <!-- Outer background (cream) -->
  <rect width="480" height="600" fill="#FFF3D6"/>

  <!-- ===== PANEL 1: Receiving the voting certificate ===== -->
  <g clip-path="url(#fvhPanel1)">
    <rect x="10" y="10" width="460" height="175" fill="url(#fvhSky)"/>
    <!-- Clouds -->
    <g fill="#FFFFFF" opacity="0.95">
      <ellipse cx="70" cy="40" rx="20" ry="8"/>
      <ellipse cx="85" cy="35" rx="14" ry="9"/>
      <ellipse cx="360" cy="55" rx="22" ry="9"/>
      <ellipse cx="378" cy="49" rx="15" ry="10"/>
    </g>
    <!-- Left house -->
    <g transform="translate(60 135)">
      <rect x="-30" y="-40" width="60" height="45" fill="#FFEED0" stroke="#C96C00" stroke-width="1.5"/>
      <path d="M -34 -40 L 34 -40 L 22 -58 L -22 -58 Z" fill="#F5A623"/>
      <rect x="-8" y="-20" width="16" height="25" fill="#26B7EA" opacity="0.8"/>
      <rect x="-24" y="-32" width="10" height="10" fill="#DFF3FC" stroke="#26B7EA" stroke-width="1"/>
      <rect x="14" y="-32" width="10" height="10" fill="#DFF3FC" stroke="#26B7EA" stroke-width="1"/>
    </g>
    <!-- Right building -->
    <g transform="translate(400 135)">
      <rect x="-24" y="-70" width="48" height="75" fill="#FFEED0" stroke="#C96C00" stroke-width="1.5"/>
      <rect x="-16" y="-60" width="8" height="10" fill="#DFF3FC"/>
      <rect x="-4" y="-60" width="8" height="10" fill="#DFF3FC"/>
      <rect x="8" y="-60" width="8" height="10" fill="#DFF3FC"/>
      <rect x="-16" y="-44" width="8" height="10" fill="#DFF3FC"/>
      <rect x="-4" y="-44" width="8" height="10" fill="#DFF3FC"/>
      <rect x="8" y="-44" width="8" height="10" fill="#DFF3FC"/>
      <rect x="-16" y="-28" width="8" height="10" fill="#DFF3FC"/>
      <rect x="-4" y="-28" width="8" height="10" fill="#DFF3FC"/>
      <rect x="8" y="-28" width="8" height="10" fill="#DFF3FC"/>
    </g>
    <!-- Trees -->
    <g transform="translate(140 138)">
      <rect x="-3" y="-6" width="6" height="10" fill="#8B5A2B"/>
      <circle cx="0" cy="-16" r="14" fill="#7FB56A"/>
      <circle cx="-8" cy="-10" r="10" fill="#6FA35A"/>
      <circle cx="8" cy="-10" r="10" fill="#8FC479"/>
    </g>
    <g transform="translate(340 138)">
      <rect x="-3" y="-6" width="6" height="10" fill="#8B5A2B"/>
      <circle cx="0" cy="-20" r="18" fill="#7FB56A"/>
      <circle cx="-10" cy="-12" r="12" fill="#6FA35A"/>
      <circle cx="10" cy="-12" r="12" fill="#8FC479"/>
    </g>
    <!-- Ground -->
    <rect x="10" y="140" width="460" height="45" fill="#EFC98A"/>
    <line x1="10" y1="140" x2="470" y2="140" stroke="#C96C00" stroke-width="1"/>

    <!-- Girl (left) -->
    <g transform="translate(150 130)">
      <!-- Body -->
      <path d="M -30 0 Q -32 -30 -18 -34 L 18 -34 Q 32 -30 30 0 Z" fill="#26B7EA"/>
      <!-- Neck & shirt -->
      <rect x="-8" y="-42" width="16" height="10" fill="#FFE0B5"/>
      <rect x="-14" y="-36" width="28" height="8" fill="#FFFFFF"/>
      <!-- Bag strap -->
      <path d="M -18 -32 L 26 -6" stroke="#B8895E" stroke-width="3" fill="none"/>
      <!-- Head -->
      <circle cx="0" cy="-58" r="22" fill="#FFE0B5"/>
      <!-- Hair -->
      <path d="M -22 -60 Q -24 -80 0 -82 Q 24 -80 22 -60 Q 22 -68 12 -70 Q 6 -66 0 -70 Q -8 -66 -14 -70 Q -22 -68 -22 -60 Z" fill="#5D3A1F"/>
      <path d="M -22 -60 Q -22 -46 -18 -40 L -14 -40 L -14 -54 Z" fill="#5D3A1F"/>
      <path d="M 22 -60 Q 22 -46 18 -40 L 14 -40 L 14 -54 Z" fill="#5D3A1F"/>
      <!-- Eyes -->
      <circle cx="-7" cy="-56" r="2" fill="#2E1A0E"/>
      <circle cx="7" cy="-56" r="2" fill="#2E1A0E"/>
      <!-- Smile -->
      <path d="M -4 -48 Q 0 -45 4 -48" stroke="#2E1A0E" stroke-width="1.4" fill="none" stroke-linecap="round"/>
      <!-- Right arm receiving -->
      <path d="M 20 -20 Q 46 -22 60 -12" stroke="#26B7EA" stroke-width="12" fill="none" stroke-linecap="round"/>
      <circle cx="62" cy="-11" r="7" fill="#FFE0B5"/>
    </g>

    <!-- Certificate exchanged -->
    <g transform="translate(258 119) rotate(-4)">
      <rect x="-24" y="-16" width="48" height="32" rx="2" fill="url(#fvhCard)" stroke="#F5A623" stroke-width="2"/>
      <circle cx="0" cy="0" r="7" fill="none" stroke="#F5A623" stroke-width="1.5"/>
      <text y="4" font-family="'Zen Maru Gothic',sans-serif" font-size="9" font-weight="900" fill="#E08300" text-anchor="middle">済</text>
      <rect x="-20" y="-13" width="16" height="2" fill="#F5A623" opacity="0.6"/>
      <rect x="-20" y="10" width="12" height="2" fill="#F5A623" opacity="0.6"/>
      <!-- Sparkle above -->
      <g stroke="#E08300" stroke-width="1.5" stroke-linecap="round">
        <line x1="0" y1="-22" x2="0" y2="-27"/>
        <line x1="-6" y1="-20" x2="-9" y2="-24"/>
        <line x1="6" y1="-20" x2="9" y2="-24"/>
      </g>
    </g>

    <!-- Staff hand (right, dark blue sleeve) -->
    <g transform="translate(330 130)">
      <path d="M 20 -8 Q 40 -12 55 -6 L 90 -6 L 90 20 L 20 20 Z" fill="#0180BC"/>
      <rect x="18" y="-12" width="14" height="20" fill="#26B7EA"/>
      <circle cx="12" cy="-2" r="8" fill="#FFE0B5"/>
    </g>
  </g>
  <rect x="10" y="10" width="460" height="175" rx="10" fill="none" stroke="#F5A623" stroke-width="3"/>

  <!-- Down arrow between panel 1 and 2 -->
  <g transform="translate(240 197)">
    <circle r="13" fill="url(#fvhArrow)"/>
    <path d="M -6 -3 L 0 5 L 6 -3" stroke="#FFFFFF" stroke-width="3" fill="none" stroke-linecap="round" stroke-linejoin="round"/>
  </g>

  <!-- ===== PANEL 2: Browsing shop list on smartphone ===== -->
  <g clip-path="url(#fvhPanel2)">
    <rect x="10" y="210" width="460" height="175" fill="url(#fvhSky)"/>
    <!-- Clouds -->
    <g fill="#FFFFFF" opacity="0.95">
      <ellipse cx="90" cy="245" rx="18" ry="8"/>
      <ellipse cx="105" cy="240" rx="12" ry="8"/>
      <ellipse cx="380" cy="255" rx="20" ry="8"/>
    </g>
    <!-- Left shop with awning -->
    <g transform="translate(60 335)">
      <rect x="-30" y="-50" width="60" height="55" fill="#FFEED0" stroke="#C96C00" stroke-width="1.5"/>
      <path d="M -36 -50 L 36 -50 L 36 -60 L -36 -60 Z" fill="#26B7EA"/>
      <path d="M -34 -50 L -26 -50 L -22 -60 L -30 -60 Z" fill="#FFFFFF" opacity="0.85"/>
      <path d="M -18 -50 L -10 -50 L -6 -60 L -14 -60 Z" fill="#FFFFFF" opacity="0.85"/>
      <path d="M -2 -50 L 6 -50 L 10 -60 L 2 -60 Z" fill="#FFFFFF" opacity="0.85"/>
      <path d="M 14 -50 L 22 -50 L 26 -60 L 18 -60 Z" fill="#FFFFFF" opacity="0.85"/>
      <rect x="-6" y="-30" width="12" height="35" fill="#C96C00"/>
      <rect x="-22" y="-38" width="10" height="8" fill="#DFF3FC" stroke="#26B7EA" stroke-width="1"/>
      <rect x="12" y="-38" width="10" height="8" fill="#DFF3FC" stroke="#26B7EA" stroke-width="1"/>
    </g>
    <!-- Right building -->
    <g transform="translate(400 335)">
      <rect x="-20" y="-60" width="40" height="65" fill="#FFEED0" stroke="#C96C00" stroke-width="1.5"/>
      <rect x="-14" y="-52" width="6" height="8" fill="#DFF3FC"/>
      <rect x="-4" y="-52" width="6" height="8" fill="#DFF3FC"/>
      <rect x="6" y="-52" width="6" height="8" fill="#DFF3FC"/>
      <rect x="-14" y="-38" width="6" height="8" fill="#DFF3FC"/>
      <rect x="-4" y="-38" width="6" height="8" fill="#DFF3FC"/>
      <rect x="6" y="-38" width="6" height="8" fill="#DFF3FC"/>
      <rect x="-14" y="-24" width="6" height="8" fill="#DFF3FC"/>
      <rect x="-4" y="-24" width="6" height="8" fill="#DFF3FC"/>
      <rect x="6" y="-24" width="6" height="8" fill="#DFF3FC"/>
    </g>
    <!-- Ground -->
    <rect x="10" y="340" width="460" height="45" fill="#EFC98A"/>
    <line x1="10" y1="340" x2="470" y2="340" stroke="#C96C00" stroke-width="1"/>

    <!-- Girl (turned toward phone) -->
    <g transform="translate(200 335)">
      <path d="M -30 0 Q -32 -30 -18 -34 L 18 -34 Q 32 -30 30 0 Z" fill="#26B7EA"/>
      <rect x="-8" y="-42" width="16" height="10" fill="#FFE0B5"/>
      <path d="M -18 -32 L 26 -6" stroke="#B8895E" stroke-width="3" fill="none"/>
      <circle cx="0" cy="-58" r="22" fill="#FFE0B5"/>
      <path d="M -22 -60 Q -24 -80 0 -82 Q 24 -80 22 -60 Q 22 -68 12 -70 Q 6 -66 0 -70 Q -8 -66 -14 -70 Q -22 -68 -22 -60 Z" fill="#5D3A1F"/>
      <path d="M 22 -60 Q 22 -46 18 -40 L 14 -40 L 14 -54 Z" fill="#5D3A1F"/>
      <!-- Eyes look right -->
      <circle cx="6" cy="-56" r="2" fill="#2E1A0E"/>
      <circle cx="14" cy="-56" r="2" fill="#2E1A0E"/>
      <path d="M 4 -48 Q 8 -45 12 -48" stroke="#2E1A0E" stroke-width="1.4" fill="none" stroke-linecap="round"/>
      <!-- Arms holding phone -->
      <path d="M 22 -22 Q 40 -22 46 -14" stroke="#26B7EA" stroke-width="10" fill="none" stroke-linecap="round"/>
      <path d="M 20 -6 Q 36 -6 44 -8" stroke="#26B7EA" stroke-width="10" fill="none" stroke-linecap="round"/>
    </g>

    <!-- Smartphone -->
    <g transform="translate(270 315)">
      <rect x="-24" y="-38" width="48" height="86" rx="7" fill="#2E3A4A"/>
      <rect x="-20" y="-32" width="40" height="70" rx="3" fill="#FFFFFF"/>
      <rect x="-6" y="-34" width="12" height="2" rx="1" fill="#4A525E"/>
      <!-- Shop card 1 -->
      <rect x="-17" y="-28" width="34" height="18" rx="2" fill="#FFEED0" stroke="#F5A623" stroke-width="1"/>
      <rect x="-15" y="-26" width="8" height="14" fill="#26B7EA"/>
      <path d="M -15 -22 L -11 -26 L -7 -22 L -7 -12 L -15 -12 Z" fill="#F5A623"/>
      <rect x="-5" y="-24" width="20" height="2" fill="#C96C00"/>
      <rect x="-5" y="-19" width="16" height="2" fill="#8B5A2B" opacity="0.6"/>
      <rect x="-5" y="-15" width="14" height="2" fill="#8B5A2B" opacity="0.6"/>
      <!-- Shop card 2 -->
      <rect x="-17" y="-8" width="34" height="18" rx="2" fill="#FFEED0" stroke="#F5A623" stroke-width="1"/>
      <circle cx="-9" cy="1" r="6" fill="#D94F3A"/>
      <path d="M -9 -5 L -6 -6" stroke="#4A7A3A" stroke-width="1.2" fill="none"/>
      <rect x="0" y="-4" width="15" height="2" fill="#C96C00"/>
      <rect x="0" y="1" width="12" height="2" fill="#8B5A2B" opacity="0.6"/>
      <rect x="0" y="5" width="10" height="2" fill="#8B5A2B" opacity="0.6"/>
      <!-- Shop card 3 -->
      <rect x="-17" y="12" width="34" height="18" rx="2" fill="#FFEED0" stroke="#F5A623" stroke-width="1"/>
      <ellipse cx="-9" cy="22" rx="6" ry="4" fill="#C96C00"/>
      <ellipse cx="-9" cy="20" rx="6" ry="3" fill="#E08300"/>
      <rect x="0" y="16" width="15" height="2" fill="#C96C00"/>
      <rect x="0" y="21" width="12" height="2" fill="#8B5A2B" opacity="0.6"/>
      <rect x="0" y="25" width="10" height="2" fill="#8B5A2B" opacity="0.6"/>
      <!-- Heart / dot -->
      <circle cx="18" cy="-19" r="2" fill="#F5A623"/>
    </g>

    <!-- Speech bubble with shop icons -->
    <g transform="translate(380 305)">
      <path d="M -50 -30 Q -60 -30 -60 -20 L -60 22 Q -60 32 -50 32 L 42 32 Q 52 32 52 22 L 52 -20 Q 52 -30 42 -30 Z" fill="#FFFFFF" stroke="#F5A623" stroke-width="2.5"/>
      <path d="M -50 22 L -66 32 L -46 26 Z" fill="#FFFFFF" stroke="#F5A623" stroke-width="2.5"/>
      <!-- house icon -->
      <g transform="translate(-38 -8)">
        <path d="M -10 -6 L 0 -14 L 10 -6 L 10 8 L -10 8 Z" fill="#FFEED0" stroke="#F5A623" stroke-width="1.5"/>
        <path d="M -12 -6 L 0 -16 L 12 -6" fill="#26B7EA"/>
        <rect x="-3" y="0" width="6" height="8" fill="#C96C00"/>
      </g>
      <!-- bread -->
      <g transform="translate(-6 -6)">
        <ellipse cx="0" cy="0" rx="12" ry="7" fill="#E08300"/>
        <ellipse cx="0" cy="-1" rx="10" ry="5" fill="#F5A623"/>
        <line x1="-6" y1="-2" x2="-3" y2="0" stroke="#C96C00" stroke-width="1"/>
        <line x1="-1" y1="-3" x2="2" y2="-1" stroke="#C96C00" stroke-width="1"/>
        <line x1="4" y1="-2" x2="7" y2="0" stroke="#C96C00" stroke-width="1"/>
      </g>
      <!-- plant pot -->
      <g transform="translate(-38 20)">
        <path d="M -8 -2 L 8 -2 L 6 8 L -6 8 Z" fill="#C96C00"/>
        <path d="M -6 -2 Q -8 -12 -2 -14 Q 0 -8 -2 -2" fill="#7FB56A"/>
        <path d="M 6 -2 Q 8 -12 2 -14 Q 0 -8 2 -2" fill="#7FB56A"/>
        <path d="M 0 -2 Q -2 -16 4 -18 Q 4 -10 0 -4" fill="#8FC479"/>
      </g>
      <!-- flower -->
      <g transform="translate(-10 20)">
        <path d="M 0 4 L 0 -2" stroke="#4A7A3A" stroke-width="1.5"/>
        <circle cx="0" cy="-6" r="4" fill="#F5A623"/>
        <circle cx="-3" cy="-4" r="3" fill="#F5A623"/>
        <circle cx="3" cy="-4" r="3" fill="#F5A623"/>
        <circle cx="0" cy="-9" r="3" fill="#F5A623"/>
        <circle cx="0" cy="-6" r="1.5" fill="#FFFFFF"/>
      </g>
      <!-- cup -->
      <g transform="translate(28 20)">
        <path d="M -8 -8 L 8 -8 L 6 6 L -6 6 Z" fill="#26B7EA"/>
        <path d="M 8 -4 Q 14 -4 14 2 Q 14 6 8 6" fill="none" stroke="#26B7EA" stroke-width="2"/>
        <ellipse cx="0" cy="-8" rx="8" ry="2" fill="#DFF3FC"/>
      </g>
    </g>
  </g>
  <rect x="10" y="210" width="460" height="175" rx="10" fill="none" stroke="#F5A623" stroke-width="3"/>

  <!-- Down arrow between panel 2 and 3 -->
  <g transform="translate(240 397)">
    <circle r="13" fill="url(#fvhArrow)"/>
    <path d="M -6 -3 L 0 5 L 6 -3" stroke="#FFFFFF" stroke-width="3" fill="none" stroke-linecap="round" stroke-linejoin="round"/>
  </g>

  <!-- ===== PANEL 3: Presenting certificate at shop ===== -->
  <g clip-path="url(#fvhPanel3)">
    <rect x="10" y="410" width="460" height="180" fill="url(#fvhInterior)"/>
    <!-- Awning left -->
    <g transform="translate(50 430)">
      <path d="M -40 0 L 40 0 L 32 16 L -32 16 Z" fill="#26B7EA"/>
      <path d="M -38 0 L -28 0 L -22 16 L -32 16 Z" fill="#FFFFFF" opacity="0.85"/>
      <path d="M -18 0 L -8 0 L -2 16 L -12 16 Z" fill="#FFFFFF" opacity="0.85"/>
      <path d="M 2 0 L 12 0 L 18 16 L 8 16 Z" fill="#FFFFFF" opacity="0.85"/>
      <path d="M 22 0 L 32 0 L 38 16 L 28 16 Z" fill="#FFFFFF" opacity="0.85"/>
    </g>
    <!-- Shelves back right -->
    <g transform="translate(400 470)">
      <rect x="-40" y="-40" width="80" height="70" fill="#C08A50" opacity="0.5"/>
      <line x1="-40" y1="-20" x2="40" y2="-20" stroke="#8B5A2B" stroke-width="2"/>
      <line x1="-40" y1="5" x2="40" y2="5" stroke="#8B5A2B" stroke-width="2"/>
      <!-- Jars -->
      <g transform="translate(-25 -25)">
        <rect x="-6" y="-8" width="12" height="16" rx="1" fill="#DFF3FC" stroke="#26B7EA" stroke-width="1"/>
        <rect x="-6" y="-8" width="12" height="3" fill="#C96C00"/>
      </g>
      <g transform="translate(-5 -25)">
        <rect x="-6" y="-8" width="12" height="16" rx="1" fill="#F5A623" opacity="0.6" stroke="#C96C00" stroke-width="1"/>
        <rect x="-6" y="-8" width="12" height="3" fill="#C96C00"/>
      </g>
      <g transform="translate(15 -25)">
        <rect x="-6" y="-8" width="12" height="16" rx="1" fill="#DFF3FC" stroke="#26B7EA" stroke-width="1"/>
        <rect x="-6" y="-8" width="12" height="3" fill="#C96C00"/>
      </g>
      <!-- Bottom shelf items -->
      <rect x="-30" y="-2" width="16" height="10" rx="1" fill="#F5A623"/>
      <rect x="-8" y="-2" width="16" height="10" rx="1" fill="#7FB56A"/>
      <rect x="14" y="-2" width="16" height="10" rx="1" fill="#D94F3A"/>
    </g>
    <!-- Pendant lamp -->
    <g transform="translate(340 425)">
      <line x1="0" y1="0" x2="0" y2="12" stroke="#8B5A2B" stroke-width="1.5"/>
      <path d="M -10 12 L 10 12 L 6 22 L -6 22 Z" fill="#F5A623"/>
      <ellipse cx="0" cy="22" rx="6" ry="2" fill="#FFF3B0"/>
    </g>
    <!-- Wooden counter -->
    <rect x="60" y="540" width="360" height="30" fill="#B8895E"/>
    <rect x="60" y="540" width="360" height="4" fill="#8B5A2B"/>

    <!-- Girl left -->
    <g transform="translate(160 540)">
      <path d="M -30 0 Q -32 -30 -18 -34 L 18 -34 Q 32 -30 30 0 Z" fill="#26B7EA"/>
      <rect x="-8" y="-42" width="16" height="10" fill="#FFE0B5"/>
      <path d="M -18 -32 L 26 -6" stroke="#B8895E" stroke-width="3" fill="none"/>
      <circle cx="0" cy="-58" r="22" fill="#FFE0B5"/>
      <path d="M -22 -60 Q -24 -80 0 -82 Q 24 -80 22 -60 Q 22 -68 12 -70 Q 6 -66 0 -70 Q -8 -66 -14 -70 Q -22 -68 -22 -60 Z" fill="#5D3A1F"/>
      <path d="M 22 -60 Q 22 -46 18 -40 L 14 -40 L 14 -54 Z" fill="#5D3A1F"/>
      <!-- Eyes look right -->
      <circle cx="6" cy="-56" r="2" fill="#2E1A0E"/>
      <circle cx="14" cy="-56" r="2" fill="#2E1A0E"/>
      <path d="M 4 -48 Q 8 -45 12 -48" stroke="#2E1A0E" stroke-width="1.4" fill="none" stroke-linecap="round"/>
      <!-- Arm forward with certificate -->
      <path d="M 22 -22 Q 46 -22 60 -12" stroke="#26B7EA" stroke-width="12" fill="none" stroke-linecap="round"/>
      <circle cx="62" cy="-11" r="7" fill="#FFE0B5"/>
    </g>

    <!-- Certificate between -->
    <g transform="translate(268 528) rotate(-4)">
      <rect x="-24" y="-16" width="48" height="32" rx="2" fill="url(#fvhCard)" stroke="#F5A623" stroke-width="2"/>
      <circle cx="0" cy="0" r="7" fill="none" stroke="#F5A623" stroke-width="1.5"/>
      <text y="4" font-family="'Zen Maru Gothic',sans-serif" font-size="9" font-weight="900" fill="#E08300" text-anchor="middle">済</text>
      <rect x="-20" y="-13" width="16" height="2" fill="#F5A623" opacity="0.6"/>
      <rect x="-20" y="10" width="12" height="2" fill="#F5A623" opacity="0.6"/>
      <g stroke="#E08300" stroke-width="1.5" stroke-linecap="round">
        <line x1="0" y1="-22" x2="0" y2="-27"/>
        <line x1="-6" y1="-20" x2="-9" y2="-24"/>
        <line x1="6" y1="-20" x2="9" y2="-24"/>
      </g>
    </g>

    <!-- Shop staff right -->
    <g transform="translate(340 540)">
      <!-- Apron -->
      <path d="M -22 0 L 22 0 L 20 -30 L -20 -30 Z" fill="#0180BC"/>
      <!-- Shirt -->
      <path d="M -26 -32 Q -28 -6 -22 0 L -20 -30 Z" fill="#FFFFFF"/>
      <path d="M 26 -32 Q 28 -6 22 0 L 20 -30 Z" fill="#FFFFFF"/>
      <rect x="-8" y="-42" width="16" height="10" fill="#FFE0B5"/>
      <!-- Head -->
      <circle cx="0" cy="-58" r="22" fill="#FFE0B5"/>
      <!-- Bandana -->
      <path d="M -22 -58 Q -22 -78 0 -80 Q 22 -78 22 -58 L 22 -66 L -22 -66 Z" fill="#26B7EA"/>
      <path d="M -22 -66 L 22 -66" stroke="#0180BC" stroke-width="1"/>
      <circle cx="-6" cy="-70" r="1.5" fill="#FFFFFF"/>
      <circle cx="8" cy="-72" r="1.5" fill="#FFFFFF"/>
      <!-- Hair bottom (ponytail hint) -->
      <path d="M -20 -58 Q -20 -46 -14 -40 L -10 -40 L -10 -52 Z" fill="#5D3A1F"/>
      <path d="M 20 -58 Q 20 -46 14 -40 L 10 -40 L 10 -52 Z" fill="#5D3A1F"/>
      <ellipse cx="18" cy="-40" rx="4" ry="8" fill="#5D3A1F"/>
      <!-- Eyes look left -->
      <circle cx="-14" cy="-56" r="2" fill="#2E1A0E"/>
      <circle cx="-6" cy="-56" r="2" fill="#2E1A0E"/>
      <path d="M -14 -48 Q -10 -45 -6 -48" stroke="#2E1A0E" stroke-width="1.4" fill="none" stroke-linecap="round"/>
      <!-- Left arm forward -->
      <path d="M -20 -20 Q -46 -18 -58 -10" stroke="#FFFFFF" stroke-width="10" fill="none" stroke-linecap="round"/>
      <circle cx="-60" cy="-9" r="7" fill="#FFE0B5"/>
    </g>

    <!-- Basket with vegetables on counter -->
    <g transform="translate(410 540)">
      <path d="M -20 -2 L 20 -2 L 16 12 L -16 12 Z" fill="#B8895E"/>
      <line x1="-18" y1="2" x2="18" y2="2" stroke="#8B5A2B" stroke-width="0.8"/>
      <line x1="-16" y1="6" x2="16" y2="6" stroke="#8B5A2B" stroke-width="0.8"/>
      <circle cx="-8" cy="-6" r="7" fill="#D94F3A"/>
      <path d="M -8 -12 L -4 -14" stroke="#4A7A3A" stroke-width="1.5"/>
      <ellipse cx="6" cy="-4" rx="8" ry="5" fill="#7FB56A"/>
      <path d="M 4 -8 Q 10 -12 12 -8" fill="none" stroke="#4A7A3A" stroke-width="1.5"/>
      <ellipse cx="12" cy="-8" rx="4" ry="3" fill="#F5A623"/>
    </g>

    <!-- Sparkle around certificate -->
    <g fill="#F5A623">
      <circle cx="255" cy="500" r="2"/>
      <circle cx="290" cy="510" r="2"/>
    </g>
  </g>
  <rect x="10" y="410" width="460" height="180" rx="10" fill="none" stroke="#F5A623" stroke-width="3"/>
</svg>
