<svg xmlns="http://www.w3.org/2000/svg" viewBox="0 0 640 400" aria-hidden="true">
  <!-- sky accents -->
  <circle cx="556" cy="64" r="32" fill="#f3bb4f"/>
  <g fill="#ffffff" opacity=".95">
    <ellipse cx="116" cy="62" rx="44" ry="15"/>
    <ellipse cx="154" cy="50" rx="30" ry="12"/>
    <ellipse cx="424" cy="44" rx="38" ry="13"/>
    <ellipse cx="456" cy="35" rx="24" ry="10"/>
  </g>

  <!-- ground -->
  <rect x="0" y="314" width="640" height="86" fill="#e9f3ec"/>
  <path d="M0 314h640" stroke="#cfe3d3" stroke-width="3"/>

  <!-- cafe -->
  <g>
    <rect x="44" y="156" width="152" height="158" fill="#ffffff" stroke="#dfe8ef" stroke-width="2"/>
    <rect x="36" y="134" width="168" height="32" rx="7" fill="#d96f59"/>
    <g fill="#ffffff" opacity=".4">
      <rect x="48" y="134" width="13" height="32"/>
      <rect x="76" y="134" width="13" height="32"/>
      <rect x="104" y="134" width="13" height="32"/>
      <rect x="132" y="134" width="13" height="32"/>
      <rect x="160" y="134" width="13" height="32"/>
    </g>
    <rect x="60" y="186" width="56" height="48" rx="5" fill="#cfe6f5"/>
    <path d="M60 210h56M88 186v48" stroke="#ffffff" stroke-width="3"/>
    <rect x="136" y="206" width="42" height="108" rx="4" fill="#1f6db2"/>
    <circle cx="170" cy="262" r="3.5" fill="#fff2df"/>
    <rect x="60" y="252" width="56" height="9" rx="4.5" fill="#f2d8c2"/>
    <rect x="60" y="270" width="40" height="9" rx="4.5" fill="#f2d8c2"/>
  </g>

  <!-- bakery -->
  <g>
    <rect x="244" y="128" width="160" height="186" fill="#fff7ea" stroke="#ecd9bd" stroke-width="2"/>
    <rect x="236" y="106" width="176" height="32" rx="7" fill="#43865b"/>
    <g fill="#ffffff" opacity=".4">
      <rect x="250" y="106" width="13" height="32"/>
      <rect x="280" y="106" width="13" height="32"/>
      <rect x="310" y="106" width="13" height="32"/>
      <rect x="340" y="106" width="13" height="32"/>
      <rect x="370" y="106" width="13" height="32"/>
    </g>
    <circle cx="324" cy="172" r="24" fill="#ffffff" stroke="#e3cfae" stroke-width="2"/>
    <path d="M312 172c0-8 5-12 12-12s12 4 12 12" fill="none" stroke="#c98d4b" stroke-width="3" stroke-linecap="round"/>
    <path d="M316 176h16" stroke="#c98d4b" stroke-width="3" stroke-linecap="round"/>
    <rect x="262" y="218" width="50" height="96" rx="4" fill="#a3653a"/>
    <circle cx="302" cy="268" r="3.5" fill="#fff2df"/>
    <rect x="330" y="218" width="52" height="50" rx="5" fill="#cfe6f5"/>
    <path d="M330 243h52M356 218v50" stroke="#ffffff" stroke-width="3"/>
  </g>

  <!-- bookstore -->
  <g>
    <rect x="452" y="162" width="148" height="152" fill="#ffffff" stroke="#dfe8ef" stroke-width="2"/>
    <rect x="444" y="140" width="164" height="32" rx="7" fill="#1f6db2"/>
    <g fill="#ffffff" opacity=".4">
      <rect x="456" y="140" width="13" height="32"/>
      <rect x="484" y="140" width="13" height="32"/>
      <rect x="512" y="140" width="13" height="32"/>
      <rect x="540" y="140" width="13" height="32"/>
      <rect x="568" y="140" width="13" height="32"/>
    </g>
    <rect x="466" y="192" width="54" height="60" rx="5" fill="#cfe6f5"/>
    <g stroke-linecap="round" stroke-width="6">
      <path d="M474 244v-26" stroke="#d96f59"/>
      <path d="M486 244v-32" stroke="#43865b"/>
      <path d="M498 244v-22" stroke="#f3bb4f"/>
      <path d="M510 244v-29" stroke="#1f6db2"/>
    </g>
    <rect x="538" y="208" width="44" height="106" rx="4" fill="#43865b"/>
    <circle cx="572" cy="262" r="3.5" fill="#fff2df"/>
  </g>

  <!-- tree -->
  <g>
    <rect x="219" y="266" width="10" height="48" rx="4" fill="#a3653a"/>
    <circle cx="224" cy="248" r="28" fill="#6fae85"/>
    <circle cx="206" cy="262" r="18" fill="#85bd97"/>
    <circle cx="242" cy="262" r="18" fill="#85bd97"/>
  </g>

  <!-- walking person with tote bag -->
  <g>
    <circle cx="404" cy="282" r="13" fill="#f2c6a0"/>
    <path d="M392 280c0-9 6-15 12-15s12 6 12 15" fill="#3b4a5a"/>
    <path d="M394 295c2-3 6-5 10-5s8 2 10 5l3 26h-26z" fill="#d96f59"/>
    <path d="M398 320l-5 26M412 320l7 24" stroke="#3b4a5a" stroke-width="7" stroke-linecap="round"/>
    <path d="M391 348l-7 4M419 344l7 5" stroke="#3b4a5a" stroke-width="7" stroke-linecap="round"/>
    <path d="M414 300l9 10" stroke="#f2c6a0" stroke-width="6" stroke-linecap="round"/>
    <rect x="416" y="308" width="18" height="20" rx="3" fill="#fff7ea" stroke="#e3cfae" stroke-width="2"/>
    <path d="M420 308c0-5 3-7 5-7s5 2 5 7" fill="none" stroke="#a3653a" stroke-width="2.5"/>
  </g>

  <!-- path dots -->
  <g fill="#cfe3d3">
    <circle cx="80" cy="352" r="5"/>
    <circle cx="150" cy="372" r="5"/>
    <circle cx="250" cy="356" r="5"/>
    <circle cx="330" cy="376" r="5"/>
    <circle cx="470" cy="360" r="5"/>
    <circle cx="560" cy="378" r="5"/>
  </g>
</svg>
