<svg xmlns="http://www.w3.org/2000/svg" viewBox="0 0 80 80" role="img" aria-label="近くから探す">
  <title>近くから探す</title>
  <circle cx="40" cy="40" r="36" fill="#FFEFD1"/>
  <ellipse cx="40" cy="62" rx="26" ry="5" fill="none" stroke="#F5A623" stroke-width="2" opacity="0.4"/>
  <ellipse cx="40" cy="62" rx="18" ry="3.5" fill="none" stroke="#F5A623" stroke-width="2" opacity="0.7"/>
  <ellipse cx="40" cy="62" rx="10" ry="2" fill="#F5A623" opacity="0.35"/>
  <path d="M 40 20 C 29.5 20 22 28 22 37 C 22 48 40 62 40 62 C 40 62 58 48 58 37 C 58 28 50.5 20 40 20 Z" fill="#F5A623"/>
  <path d="M 40 20 C 29.5 20 22 28 22 37 C 22 48 40 62 40 62 C 40 62 58 48 58 37 C 58 28 50.5 20 40 20 Z" fill="none" stroke="#E08300" stroke-width="1.5"/>
  <circle cx="40" cy="37" r="6.5" fill="#FFFFFF"/>
</svg>
