<svg xmlns="http://www.w3.org/2000/svg" viewBox="0 0 1513 1204" role="img" aria-label="稲毛区">
  <title>稲毛区</title>
  <path fill="#F5C542" d="M 987.50 1190.36 C 972.87 1187.26 959.05 1178.02 940.76 1159.08 C 934.08 1152.16 926.56 1144.97 924.05 1143.10 C 915.85 1136.99 908.91 1129.65 902.80 1120.63 C 895.04 1109.18 871.27 1085.18 860.60 1078.03 C 850.80 1071.47 838.54 1059.87 830.98 1050.00 C 824.42 1041.45 808.69 1025.85 802.00 1021.26 C 796.00 1017.14 788.19 1008.89 783.17 1001.36 C 780.92 997.99 775.41 991.07 770.93 985.98 C 756.13 969.19 756.20 965.52 771.50 954.36 C 781.31 947.20 1115.40 612.87 1117.90 607.71 C 1120.53 602.27 1120.58 595.83 1118.03 590.57 C 1116.03 586.45 1047.74 517.66 1033.66 505.58 C 1029.89 502.35 1025.02 497.41 1022.82 494.60 C 1014.32 483.76 992.13 461.35 983.50 454.90 C 973.68 447.56 959.91 433.94 952.75 424.50 C 946.15 415.79 926.73 397.34 917.80 391.28 C 912.75 387.85 908.66 384.07 905.91 380.28 C 895.99 366.63 893.23 363.54 885.39 357.33 C 880.84 353.72 875.00 348.07 872.41 344.79 C 864.63 334.88 857.03 327.13 848.54 320.46 C 844.12 316.98 835.10 308.67 828.50 301.98 C 821.90 295.29 813.12 287.21 809.00 284.01 C 801.46 278.17 776.11 252.84 768.32 243.38 C 759.40 232.52 751.24 232.70 734.22 244.11 C 731.63 245.85 676.62 300.03 612.00 364.50 C 547.38 428.98 491.80 483.66 488.50 486.01 C 479.98 492.08 477.50 494.52 471.23 503.00 C 463.48 513.49 432.31 544.81 421.50 552.97 C 403.87 566.29 389.71 586.60 389.71 598.57 C 389.71 607.76 402.78 628.68 415.14 639.28 C 432.14 653.85 435.89 656.97 441.91 661.61 C 445.56 664.43 451.08 670.05 454.17 674.11 C 462.12 684.56 484.09 706.71 493.18 713.45 C 498.19 717.16 502.86 721.81 506.62 726.82 C 513.73 736.30 550.56 773.31 561.12 781.58 C 565.39 784.92 571.78 791.28 575.32 795.70 C 587.75 811.22 728.62 951.01 736.34 955.48 C 747.66 962.04 750.78 966.80 747.24 972.13 C 746.28 973.58 698.14 1021.96 640.25 1079.63 C 521.19 1198.26 528.75 1191.58 514.50 1190.66 C 510.10 1190.37 499.52 1189.71 491.00 1189.19 C 473.97 1188.14 471.60 1187.47 462.21 1181.07 C 457.68 1177.97 450.84 1175.09 435.80 1169.94 C 400.27 1157.78 333.87 1124.27 317.20 1110.08 C 312.63 1106.20 306.78 1101.79 304.20 1100.29 C 299.63 1097.64 282.16 1086.02 267.00 1075.54 C 262.88 1072.69 257.32 1069.10 254.64 1067.57 C 251.97 1066.04 244.86 1060.09 238.83 1054.34 C 232.47 1048.27 223.70 1041.19 217.93 1037.46 C 204.66 1028.87 161.22 985.28 151.45 970.74 C 148.04 965.66 140.73 956.68 135.22 950.79 C 129.71 944.91 123.08 936.59 120.48 932.31 C 117.88 928.03 112.94 921.37 109.50 917.51 C 106.05 913.66 101.13 907.12 98.57 903.00 C 96.00 898.88 91.95 892.68 89.56 889.23 C 80.26 875.77 67.46 849.56 59.58 827.82 C 58.65 825.24 56.05 820.29 53.80 816.82 C 51.55 813.34 48.04 806.00 46.00 800.50 C 43.95 795.00 40.48 786.90 38.28 782.50 C 33.32 772.59 32.31 769.46 31.00 760.00 C 30.43 755.88 29.08 749.80 28.00 746.50 C 26.92 743.20 25.15 736.23 24.07 731.00 C 22.99 725.77 20.86 718.12 19.34 714.00 C 16.59 706.50 16.59 706.50 15.99 669.50 C 15.40 632.50 15.40 632.50 11.99 624.00 C 6.79 611.05 6.79 586.97 11.98 574.00 C 15.39 565.50 15.39 565.50 16.01 531.50 C 16.63 497.50 16.63 497.50 19.82 488.03 C 22.28 480.70 23.23 475.68 23.97 465.86 C 25.20 449.73 31.04 431.00 38.87 418.12 C 42.55 412.05 44.34 407.78 45.53 402.17 C 49.17 385.06 61.53 357.83 74.74 337.81 C 78.80 331.65 82.75 324.26 84.03 320.40 C 85.26 316.70 88.59 310.27 91.42 306.09 C 94.26 301.92 98.32 295.62 100.45 292.11 C 102.57 288.59 110.12 279.62 117.20 272.17 C 124.82 264.17 131.99 255.53 134.73 251.06 C 137.27 246.90 140.78 241.70 142.52 239.50 C 144.26 237.30 148.33 231.45 151.55 226.50 C 159.63 214.10 183.10 190.61 196.00 182.01 C 202.32 177.80 210.85 170.44 221.50 160.03 C 237.27 144.59 246.56 137.40 270.27 122.24 C 274.80 119.34 282.10 113.91 286.50 110.15 C 290.90 106.40 300.80 99.25 308.50 94.25 C 316.20 89.25 327.08 82.17 332.69 78.50 C 338.74 74.54 346.64 70.44 352.15 68.39 C 363.83 64.05 371.47 60.24 381.00 54.02 C 385.78 50.89 390.86 48.53 395.00 47.49 C 408.52 44.11 412.00 42.85 416.72 39.60 C 423.45 34.97 428.48 32.55 435.50 30.54 C 438.80 29.60 446.78 26.35 453.24 23.33 C 461.95 19.25 467.25 17.45 473.74 16.36 C 478.56 15.56 486.36 13.58 491.08 11.98 C 510.53 5.36 527.92 8.89 540.50 22.03 C 542.70 24.33 548.06 28.94 552.42 32.28 C 561.61 39.32 638.62 116.60 645.91 126.10 C 651.35 133.18 695.60 177.31 703.50 183.53 C 706.25 185.70 714.46 193.18 721.74 200.15 C 737.28 215.04 743.85 219.00 753.00 219.00 C 765.20 219.00 761.10 222.67 866.19 117.70 C 962.31 21.68 966.05 18.19 979.75 11.70 C 989.54 7.06 1003.46 7.12 1015.81 11.84 C 1020.39 13.59 1027.36 15.47 1031.31 16.02 C 1040.06 17.23 1043.12 18.36 1049.16 22.60 C 1057.67 28.57 1061.78 30.13 1071.38 31.04 C 1082.36 32.08 1086.58 33.48 1094.84 38.82 C 1098.30 41.06 1103.24 43.65 1105.82 44.58 C 1114.77 47.82 1121.24 51.01 1126.03 54.53 C 1128.68 56.47 1141.57 63.52 1154.68 70.18 C 1167.78 76.85 1181.27 84.15 1184.66 86.40 C 1188.04 88.66 1197.94 95.26 1206.66 101.08 C 1215.37 106.91 1225.39 113.40 1228.93 115.52 C 1232.47 117.63 1238.32 122.06 1241.93 125.34 C 1245.54 128.63 1252.78 134.11 1258.00 137.52 C 1263.22 140.93 1271.78 147.74 1277.01 152.65 C 1282.25 157.55 1290.57 164.19 1295.51 167.40 C 1308.08 175.56 1337.20 204.74 1346.02 218.00 C 1350.23 224.33 1357.76 233.08 1368.60 244.25 C 1380.82 256.82 1386.30 263.30 1390.59 270.25 C 1393.73 275.34 1398.29 282.09 1400.72 285.26 C 1403.15 288.43 1408.20 296.75 1411.95 303.76 C 1415.70 310.77 1421.63 320.81 1425.13 326.08 C 1435.98 342.40 1442.89 357.08 1444.64 367.50 C 1446.19 376.77 1448.51 382.53 1454.49 391.90 C 1456.39 394.88 1459.14 400.95 1460.62 405.40 C 1462.09 409.86 1465.09 417.55 1467.28 422.50 C 1475.99 442.19 1481.05 460.18 1481.97 474.73 C 1483.01 491.20 1484.42 494.51 1494.12 503.11 C 1505.51 513.20 1504.46 504.72 1504.78 589.44 C 1505.09 671.24 1505.13 670.63 1498.96 679.44 C 1491.05 690.72 1483.58 711.77 1481.94 727.35 C 1480.91 737.18 1478.51 745.10 1473.73 754.54 C 1472.35 757.28 1469.99 763.56 1468.49 768.51 C 1466.99 773.45 1463.33 782.83 1460.36 789.35 C 1457.39 795.86 1453.38 805.76 1451.44 811.35 C 1447.43 822.92 1428.73 860.67 1422.78 869.17 C 1420.60 872.29 1416.92 879.50 1414.61 885.18 C 1410.20 896.00 1403.19 906.98 1389.93 923.87 C 1385.77 929.16 1379.93 937.06 1376.94 941.42 C 1373.96 945.77 1365.80 955.31 1358.82 962.62 C 1351.04 970.75 1343.33 980.04 1338.94 986.59 C 1329.24 1001.05 1305.74 1024.87 1295.00 1031.13 C 1290.88 1033.53 1283.68 1038.79 1279.00 1042.81 C 1274.33 1046.84 1267.12 1052.17 1263.00 1054.67 C 1258.88 1057.17 1252.58 1061.79 1249.00 1064.94 C 1245.42 1068.10 1232.83 1077.17 1221.00 1085.11 C 1209.17 1093.05 1198.15 1100.49 1196.50 1101.65 C 1180.85 1112.61 1165.78 1121.73 1151.78 1128.71 C 1142.59 1133.30 1130.73 1140.00 1125.45 1143.61 C 1112.77 1152.27 1103.51 1156.55 1092.29 1158.94 C 1082.57 1161.02 1079.59 1162.26 1071.50 1167.63 C 1068.74 1169.47 1061.71 1172.51 1055.88 1174.40 C 1050.04 1176.29 1041.97 1179.50 1037.92 1181.54 C 1027.45 1186.81 1024.22 1187.79 1009.89 1190.02 C 995.20 1192.30 996.59 1192.28 987.50 1190.36 Z"/>
</svg>
