<svg xmlns="http://www.w3.org/2000/svg" viewBox="0 0 200 150" aria-hidden="true">
  <rect width="200" height="150" fill="#eef6e9"/>
  <circle cx="100" cy="78" r="52" fill="#ffffff" opacity=".75"/>
  <ellipse cx="100" cy="102" rx="42" ry="7" fill="#e3d6bd"/><path d="M58 88c0-12 18-24 42-24s42 12 42 24c0 7-5 11-12 11H70c-7 0-12-4-12-11z" fill="#d8a05e"/><path d="M82 70c-4 6-4 18-1 26M100 67c-4 7-4 22-1 30M118 70c-4 6-4 18-1 26" fill="none" stroke="#b97c3c" stroke-width="3.5" stroke-linecap="round"/><g fill="#ffffff"><circle cx="92" cy="75" r="1.8"/><circle cx="104" cy="72" r="1.8"/><circle cx="111" cy="80" r="1.8"/><circle cx="97" cy="84" r="1.8"/></g>
</svg>
