<svg xmlns="http://www.w3.org/2000/svg" viewBox="0 0 400 250" aria-hidden="true">
  <rect width="400" height="250" fill="#e8f1fa"/>
  <g fill="#ffffff" opacity=".85">
    <ellipse cx="62" cy="36" rx="30" ry="11"/>
    <ellipse cx="88" cy="28" rx="20" ry="9"/>
    <ellipse cx="330" cy="30" rx="26" ry="10"/>
  </g>
  <rect x="0" y="216" width="400" height="34" fill="#e9f3ec"/>
  <path d="M0 216h400" stroke="#cfe3d3" stroke-width="3"/>
  <rect x="56" y="70" width="288" height="146" fill="#fffdf8" stroke="#dfe8ef" stroke-width="2.5"/>
  <rect x="48" y="58" width="304" height="14" rx="4" fill="#546577" opacity=".25"/>
  <rect x="48" y="76" width="304" height="26" rx="7" fill="#1f6db2"/>
  <rect x="57.1" y="76" width="32.4" height="26" fill="#ffffff" opacity=".38"/>
  <rect x="158.5" y="76" width="32.4" height="26" fill="#ffffff" opacity=".38"/>
  <rect x="259.8" y="76" width="32.4" height="26" fill="#ffffff" opacity=".38"/>
  <circle cx="73.3" cy="102" r="25.3" fill="#1f6db2"/>
  <circle cx="73.3" cy="102" r="25.3" fill="#ffffff" opacity=".38"/>
  <circle cx="124.0" cy="102" r="25.3" fill="#1f6db2"/>
  <circle cx="174.7" cy="102" r="25.3" fill="#1f6db2"/>
  <circle cx="174.7" cy="102" r="25.3" fill="#ffffff" opacity=".38"/>
  <circle cx="225.3" cy="102" r="25.3" fill="#1f6db2"/>
  <circle cx="276.0" cy="102" r="25.3" fill="#1f6db2"/>
  <circle cx="276.0" cy="102" r="25.3" fill="#ffffff" opacity=".38"/>
  <circle cx="326.7" cy="102" r="25.3" fill="#1f6db2"/>
  <rect x="84" y="126" width="140" height="64" rx="6" fill="#cfe6f5"/><rect x="84" y="126" width="140" height="64" rx="6" fill="none" stroke="#ffffff" stroke-width="4"/>
  <g stroke-linecap="round"><rect x="100" y="158" width="108" height="6" rx="3" fill="#e9d7c3"/><path d="M114 154v-26" stroke="#d96f59" stroke-width="9"/><path d="M129 154v-32" stroke="#43865b" stroke-width="9"/><path d="M144 154v-22" stroke="#f3bb4f" stroke-width="9"/><path d="M159 154v-29" stroke="#1f6db2" stroke-width="9"/><path d="M174 154v-24" stroke="#d96f59" stroke-width="9"/><path d="M192 154l8-26" stroke="#546577" stroke-width="9"/></g>
  <rect x="252" y="124" width="56" height="92" rx="5" fill="#1f6db2"/><circle cx="299" cy="170.0" r="3.5" fill="#fff7ea"/><rect x="259" y="133" width="42" height="29" rx="4" fill="#ffffff" opacity=".25"/>
  <path d="M330 84 v12" stroke="#8a5430" stroke-width="3"/><circle cx="330" cy="112" r="17" fill="#ffffff" stroke="#dfe8ef" stroke-width="2.5"/><g fill="none" stroke="#1f6db2" stroke-width="2.8" stroke-linecap="round" stroke-linejoin="round"><path d="M330 109c-1.8-1.6-4.5-2.2-7.5-2.2v13.4c3 0 5.7.6 7.5 2.2 1.8-1.6 4.5-2.2 7.5-2.2v-13.4c-3 0-5.7.6-7.5 2.2z"/><path d="M330 109v13.4"/></g>
  <rect x="227.9" y="203.4" width="16.2" height="12.6" rx="3" fill="#a3653a"/><circle cx="236.0" cy="194.4" r="10.8" fill="#6fae85"/><circle cx="227.9" cy="200.7" r="7.2" fill="#85bd97"/><circle cx="244.1" cy="200.7" r="7.2" fill="#85bd97"/>
  
</svg>
