<svg xmlns="http://www.w3.org/2000/svg" viewBox="0 0 400 250" aria-hidden="true">
  <rect width="400" height="250" fill="#fdeede"/>
  <g fill="#ffffff" opacity=".85">
    <ellipse cx="62" cy="36" rx="30" ry="11"/>
    <ellipse cx="88" cy="28" rx="20" ry="9"/>
    <ellipse cx="330" cy="30" rx="26" ry="10"/>
  </g>
  <rect x="0" y="216" width="400" height="34" fill="#e9f3ec"/>
  <path d="M0 216h400" stroke="#cfe3d3" stroke-width="3"/>
  <rect x="56" y="70" width="288" height="146" fill="#fffdf8" stroke="#dfe8ef" stroke-width="2.5"/>
  <rect x="48" y="58" width="304" height="14" rx="4" fill="#546577" opacity=".25"/>
  <rect x="48" y="76" width="304" height="26" rx="7" fill="#d96f59"/>
  <rect x="57.1" y="76" width="32.4" height="26" fill="#ffffff" opacity=".38"/>
  <rect x="158.5" y="76" width="32.4" height="26" fill="#ffffff" opacity=".38"/>
  <rect x="259.8" y="76" width="32.4" height="26" fill="#ffffff" opacity=".38"/>
  <circle cx="73.3" cy="102" r="25.3" fill="#d96f59"/>
  <circle cx="73.3" cy="102" r="25.3" fill="#ffffff" opacity=".38"/>
  <circle cx="124.0" cy="102" r="25.3" fill="#d96f59"/>
  <circle cx="174.7" cy="102" r="25.3" fill="#d96f59"/>
  <circle cx="174.7" cy="102" r="25.3" fill="#ffffff" opacity=".38"/>
  <circle cx="225.3" cy="102" r="25.3" fill="#d96f59"/>
  <circle cx="276.0" cy="102" r="25.3" fill="#d96f59"/>
  <circle cx="276.0" cy="102" r="25.3" fill="#ffffff" opacity=".38"/>
  <circle cx="326.7" cy="102" r="25.3" fill="#d96f59"/>
  <rect x="84" y="126" width="140" height="64" rx="6" fill="#cfe6f5"/><rect x="84" y="126" width="140" height="64" rx="6" fill="none" stroke="#ffffff" stroke-width="4"/>
  <g><rect x="118" y="166" width="74" height="8" rx="4" fill="#e9d7c3"/><path d="M138 146h26v10a12 12 0 0 1-12 12h-2a12 12 0 0 1-12-12z" fill="#ffffff" stroke="#d96f59" stroke-width="3"/><path d="M164 149h4a5.5 5.5 0 0 1 0 11h-4" fill="none" stroke="#d96f59" stroke-width="3"/><path d="M144 140c0-3 2.5-2.5 2.5-5.5M153 140c0-3 2.5-2.5 2.5-5.5" fill="none" stroke="#d96f59" stroke-width="2.5" stroke-linecap="round"/></g>
  <rect x="252" y="124" width="56" height="92" rx="5" fill="#d96f59"/><circle cx="299" cy="170.0" r="3.5" fill="#fff7ea"/><rect x="259" y="133" width="42" height="29" rx="4" fill="#ffffff" opacity=".25"/>
  <path d="M330 84 v12" stroke="#8a5430" stroke-width="3"/><circle cx="330" cy="112" r="17" fill="#ffffff" stroke="#dfe8ef" stroke-width="2.5"/><g fill="none" stroke="#d96f59" stroke-width="2.8" stroke-linecap="round"><path d="M322 110h12v5a6 6 0 0 1-6 6 6 6 0 0 1-6-6z"/><path d="M334 112h2.5a3 3 0 0 1 0 6h-2.5"/></g>
  <rect x="227.9" y="203.4" width="16.2" height="12.6" rx="3" fill="#a3653a"/><circle cx="236.0" cy="194.4" r="10.8" fill="#6fae85"/><circle cx="227.9" cy="200.7" r="7.2" fill="#85bd97"/><circle cx="244.1" cy="200.7" r="7.2" fill="#85bd97"/>
  <path d="M64 216 l10 -34 h12 l10 34 z" fill="#ffffff" stroke="#dfe8ef" stroke-width="2.5"/><rect x="71" y="190" width="18" height="4" rx="2" fill="#d96f59"/><rect x="73" y="198" width="14" height="3" rx="1.5" fill="#dfe8ef"/><rect x="74" y="204" width="12" height="3" rx="1.5" fill="#dfe8ef"/>
  
</svg>
