<svg xmlns="http://www.w3.org/2000/svg" viewBox="0 0 400 250" aria-hidden="true">
  <rect width="400" height="250" fill="#eef6e9"/>
  <g fill="#ffffff" opacity=".85">
    <ellipse cx="62" cy="36" rx="30" ry="11"/>
    <ellipse cx="88" cy="28" rx="20" ry="9"/>
    <ellipse cx="330" cy="30" rx="26" ry="10"/>
  </g>
  <rect x="0" y="216" width="400" height="34" fill="#e9f3ec"/>
  <path d="M0 216h400" stroke="#cfe3d3" stroke-width="3"/>
  <rect x="56" y="70" width="288" height="146" fill="#fff7ea" stroke="#dfe8ef" stroke-width="2.5"/>
  <rect x="48" y="58" width="304" height="14" rx="4" fill="#546577" opacity=".25"/>
  <rect x="48" y="76" width="304" height="26" rx="7" fill="#43865b"/>
  <rect x="57.1" y="76" width="32.4" height="26" fill="#ffffff" opacity=".38"/>
  <rect x="158.5" y="76" width="32.4" height="26" fill="#ffffff" opacity=".38"/>
  <rect x="259.8" y="76" width="32.4" height="26" fill="#ffffff" opacity=".38"/>
  <circle cx="73.3" cy="102" r="25.3" fill="#43865b"/>
  <circle cx="73.3" cy="102" r="25.3" fill="#ffffff" opacity=".38"/>
  <circle cx="124.0" cy="102" r="25.3" fill="#43865b"/>
  <circle cx="174.7" cy="102" r="25.3" fill="#43865b"/>
  <circle cx="174.7" cy="102" r="25.3" fill="#ffffff" opacity=".38"/>
  <circle cx="225.3" cy="102" r="25.3" fill="#43865b"/>
  <circle cx="276.0" cy="102" r="25.3" fill="#43865b"/>
  <circle cx="276.0" cy="102" r="25.3" fill="#ffffff" opacity=".38"/>
  <circle cx="326.7" cy="102" r="25.3" fill="#43865b"/>
  <rect x="84" y="126" width="140" height="64" rx="6" fill="#cfe6f5"/><rect x="84" y="126" width="140" height="64" rx="6" fill="none" stroke="#ffffff" stroke-width="4"/>
  <g><rect x="100" y="150" width="108" height="5" rx="2.5" fill="#e9d7c3"/><rect x="100" y="176" width="108" height="5" rx="2.5" fill="#e9d7c3"/><ellipse cx="122" cy="143" rx="14" ry="9" fill="#d8a05e"/><path d="M114 141c2 1.5 14 1.5 16 0" stroke="#b97c3c" stroke-width="2" fill="none" stroke-linecap="round"/><ellipse cx="156" cy="143" rx="14" ry="9" fill="#c98d4b"/><ellipse cx="188" cy="143" rx="12" ry="9" fill="#e0b070"/><ellipse cx="138" cy="169" rx="14" ry="9" fill="#e0b070"/><ellipse cx="172" cy="169" rx="14" ry="9" fill="#d8a05e"/></g>
  <rect x="252" y="124" width="56" height="92" rx="5" fill="#43865b"/><circle cx="299" cy="170.0" r="3.5" fill="#fff7ea"/><rect x="259" y="133" width="42" height="29" rx="4" fill="#ffffff" opacity=".25"/>
  <path d="M330 84 v12" stroke="#8a5430" stroke-width="3"/><circle cx="330" cy="112" r="17" fill="#ffffff" stroke="#dfe8ef" stroke-width="2.5"/><path d="M321 117c0-4.5 5-7.5 9-7.5s9 3 9 7.5c0 2.3-1.6 3.8-3.8 3.8h-10.4c-2.2 0-3.8-1.5-3.8-3.8z" fill="none" stroke="#43865b" stroke-width="2.8" stroke-linecap="round"/>
  <rect x="227.9" y="203.4" width="16.2" height="12.6" rx="3" fill="#a3653a"/><circle cx="236.0" cy="194.4" r="10.8" fill="#6fae85"/><circle cx="227.9" cy="200.7" r="7.2" fill="#85bd97"/><circle cx="244.1" cy="200.7" r="7.2" fill="#85bd97"/>
  <path d="M64 216 l10 -34 h12 l10 34 z" fill="#ffffff" stroke="#dfe8ef" stroke-width="2.5"/><rect x="71" y="190" width="18" height="4" rx="2" fill="#43865b"/><rect x="73" y="198" width="14" height="3" rx="1.5" fill="#dfe8ef"/><rect x="74" y="204" width="12" height="3" rx="1.5" fill="#dfe8ef"/>
  
</svg>
